<svg xmlns="http://www.w3.org/2000/svg" xmlns:xlink="http://www.w3.org/1999/xlink" width="500" zoomAndPan="magnify" viewBox="0 0 375 374.999991" height="500" preserveAspectRatio="xMidYMid meet" version="1.2"><defs><clipPath id="e2b04da46b"><path d="M 12.457031 15.300781 L 362.707031 15.300781 L 362.707031 359.550781 L 12.457031 359.550781 Z M 12.457031 15.300781 "/></clipPath></defs><g id="49733701f3"><path style=" stroke:none;fill-rule:nonzero;fill:#d1a12a;fill-opacity:1;" d="M 278.253906 187.425781 C 278.253906 188.886719 278.214844 190.351562 278.144531 191.8125 C 278.070312 193.273438 277.960938 194.734375 277.816406 196.1875 C 277.667969 197.644531 277.488281 199.097656 277.269531 200.542969 C 277.050781 201.992188 276.796875 203.433594 276.507812 204.867188 C 276.21875 206.304688 275.890625 207.730469 275.53125 209.152344 C 275.167969 210.570312 274.773438 211.980469 274.34375 213.378906 C 273.910156 214.78125 273.445312 216.167969 272.945312 217.546875 C 272.441406 218.925781 271.90625 220.289062 271.339844 221.640625 C 270.769531 222.992188 270.167969 224.332031 269.53125 225.652344 C 268.898438 226.976562 268.230469 228.28125 267.527344 229.574219 C 266.828125 230.863281 266.09375 232.136719 265.332031 233.390625 C 264.566406 234.648438 263.773438 235.882812 262.945312 237.097656 C 262.121094 238.316406 261.265625 239.511719 260.378906 240.6875 C 259.492188 241.863281 258.578125 243.015625 257.636719 244.148438 C 256.695312 245.277344 255.722656 246.386719 254.722656 247.46875 C 253.726562 248.554688 252.703125 249.613281 251.652344 250.648438 C 250.601562 251.683594 249.523438 252.691406 248.421875 253.675781 C 247.320312 254.65625 246.195312 255.613281 245.046875 256.539062 C 243.898438 257.46875 242.726562 258.367188 241.53125 259.242188 C 240.339844 260.113281 239.125 260.953125 237.886719 261.769531 C 236.652344 262.582031 235.394531 263.363281 234.121094 264.117188 C 232.847656 264.867188 231.554688 265.589844 230.242188 266.277344 C 228.929688 266.96875 227.605469 267.625 226.261719 268.25 C 224.917969 268.878906 223.558594 269.46875 222.183594 270.03125 C 220.8125 270.589844 219.425781 271.117188 218.027344 271.609375 C 216.625 272.101562 215.214844 272.5625 213.792969 272.984375 C 212.371094 273.410156 210.9375 273.800781 209.496094 274.15625 C 208.054688 274.511719 206.605469 274.832031 205.148438 275.117188 C 203.6875 275.402344 202.222656 275.652344 200.753906 275.867188 C 199.285156 276.082031 197.808594 276.261719 196.328125 276.40625 C 194.851562 276.550781 193.367188 276.65625 191.882812 276.726562 C 190.398438 276.800781 188.914062 276.835938 187.425781 276.835938 C 185.941406 276.835938 184.457031 276.800781 182.972656 276.726562 C 181.484375 276.65625 180.003906 276.550781 178.523438 276.40625 C 177.046875 276.261719 175.570312 276.082031 174.101562 275.867188 C 172.628906 275.652344 171.167969 275.402344 169.707031 275.117188 C 168.25 274.832031 166.800781 274.511719 165.359375 274.15625 C 163.917969 273.800781 162.484375 273.410156 161.0625 272.984375 C 159.640625 272.5625 158.230469 272.101562 156.828125 271.609375 C 155.429688 271.117188 154.042969 270.589844 152.671875 270.03125 C 151.296875 269.46875 149.9375 268.878906 148.59375 268.25 C 147.25 267.625 145.921875 266.96875 144.613281 266.277344 C 143.300781 265.589844 142.007812 264.867188 140.734375 264.117188 C 139.457031 263.363281 138.203125 262.582031 136.96875 261.769531 C 135.730469 260.953125 134.515625 260.113281 133.324219 259.242188 C 132.128906 258.367188 130.957031 257.46875 129.808594 256.539062 C 128.660156 255.613281 127.535156 254.65625 126.433594 253.675781 C 125.332031 252.691406 124.253906 251.683594 123.203125 250.648438 C 122.152344 249.613281 121.128906 248.554688 120.128906 247.46875 C 119.132812 246.386719 118.160156 245.277344 117.21875 244.148438 C 116.277344 243.015625 115.359375 241.863281 114.476562 240.6875 C 113.589844 239.511719 112.734375 238.316406 111.910156 237.097656 C 111.082031 235.882812 110.289062 234.648438 109.523438 233.390625 C 108.757812 232.136719 108.027344 230.863281 107.328125 229.574219 C 106.625 228.28125 105.957031 226.976562 105.320312 225.652344 C 104.6875 224.332031 104.085938 222.992188 103.515625 221.640625 C 102.945312 220.289062 102.410156 218.925781 101.910156 217.546875 C 101.410156 216.167969 100.945312 214.78125 100.511719 213.378906 C 100.082031 211.980469 99.683594 210.570312 99.324219 209.152344 C 98.960938 207.730469 98.636719 206.304688 98.347656 204.867188 C 98.058594 203.433594 97.804688 201.992188 97.585938 200.542969 C 97.367188 199.097656 97.183594 197.644531 97.039062 196.1875 C 96.894531 194.734375 96.785156 193.273438 96.710938 191.8125 C 96.636719 190.351562 96.601562 188.886719 96.601562 187.425781 C 96.601562 185.960938 96.636719 184.5 96.710938 183.039062 C 96.785156 181.578125 96.894531 180.117188 97.039062 178.660156 C 97.183594 177.207031 97.367188 175.753906 97.585938 174.304688 C 97.804688 172.859375 98.058594 171.417969 98.347656 169.980469 C 98.636719 168.546875 98.960938 167.121094 99.324219 165.699219 C 99.683594 164.28125 100.082031 162.871094 100.511719 161.472656 C 100.945312 160.070312 101.410156 158.679688 101.910156 157.304688 C 102.410156 155.925781 102.945312 154.5625 103.515625 153.210938 C 104.085938 151.859375 104.6875 150.519531 105.320312 149.199219 C 105.957031 147.875 106.625 146.566406 107.328125 145.277344 C 108.027344 143.988281 108.757812 142.714844 109.523438 141.460938 C 110.289062 140.203125 111.082031 138.96875 111.910156 137.75 C 112.734375 136.535156 113.589844 135.339844 114.476562 134.164062 C 115.359375 132.988281 116.277344 131.835938 117.21875 130.703125 C 118.160156 129.574219 119.132812 128.464844 120.128906 127.378906 C 121.128906 126.296875 122.152344 125.238281 123.203125 124.203125 C 124.253906 123.167969 125.332031 122.160156 126.433594 121.175781 C 127.535156 120.195312 128.660156 119.238281 129.808594 118.308594 C 130.957031 117.382812 132.128906 116.480469 133.324219 115.609375 C 134.515625 114.738281 135.730469 113.894531 136.96875 113.082031 C 138.203125 112.269531 139.457031 111.488281 140.734375 110.734375 C 142.007812 109.984375 143.300781 109.261719 144.613281 108.570312 C 145.921875 107.882812 147.25 107.226562 148.59375 106.597656 C 149.9375 105.972656 151.296875 105.378906 152.671875 104.820312 C 154.042969 104.261719 155.429688 103.734375 156.828125 103.242188 C 158.230469 102.75 159.640625 102.289062 161.0625 101.863281 C 162.484375 101.441406 163.917969 101.050781 165.359375 100.695312 C 166.800781 100.339844 168.25 100.019531 169.707031 99.734375 C 171.167969 99.445312 172.628906 99.195312 174.101562 98.984375 C 175.570312 98.769531 177.046875 98.589844 178.523438 98.445312 C 180.003906 98.300781 181.484375 98.195312 182.972656 98.121094 C 184.457031 98.050781 185.941406 98.015625 187.425781 98.015625 C 188.914062 98.015625 190.398438 98.050781 191.882812 98.121094 C 193.367188 98.195312 194.851562 98.300781 196.328125 98.445312 C 197.808594 98.589844 199.285156 98.769531 200.753906 98.984375 C 202.222656 99.195312 203.6875 99.445312 205.148438 99.734375 C 206.605469 100.019531 208.054688 100.339844 209.496094 100.695312 C 210.9375 101.050781 212.371094 101.441406 213.792969 101.863281 C 215.214844 102.289062 216.625 102.75 218.027344 103.242188 C 219.425781 103.734375 220.8125 104.261719 222.183594 104.820312 C 223.558594 105.378906 224.917969 105.972656 226.261719 106.597656 C 227.605469 107.226562 228.929688 107.882812 230.242188 108.570312 C 231.554688 109.261719 232.847656 109.984375 234.121094 110.734375 C 235.394531 111.488281 236.652344 112.269531 237.886719 113.082031 C 239.125 113.894531 240.339844 114.738281 241.53125 115.609375 C 242.726562 116.480469 243.898438 117.382812 245.046875 118.308594 C 246.195312 119.238281 247.320312 120.195312 248.421875 121.175781 C 249.523438 122.160156 250.601562 123.167969 251.652344 124.203125 C 252.703125 125.238281 253.726562 126.296875 254.722656 127.378906 C 255.722656 128.464844 256.695312 129.574219 257.636719 130.703125 C 258.578125 131.835938 259.492188 132.988281 260.378906 134.164062 C 261.265625 135.339844 262.121094 136.535156 262.945312 137.75 C 263.773438 138.96875 264.566406 140.203125 265.332031 141.460938 C 266.09375 142.714844 266.828125 143.988281 267.527344 145.277344 C 268.230469 146.566406 268.898438 147.875 269.53125 149.199219 C 270.167969 150.519531 270.769531 151.859375 271.339844 153.210938 C 271.90625 154.5625 272.441406 155.925781 272.945312 157.304688 C 273.445312 158.679688 273.910156 160.070312 274.34375 161.472656 C 274.773438 162.871094 275.167969 164.28125 275.53125 165.699219 C 275.890625 167.121094 276.21875 168.546875 276.507812 169.980469 C 276.796875 171.417969 277.050781 172.859375 277.269531 174.304688 C 277.488281 175.753906 277.667969 177.207031 277.816406 178.660156 C 277.960938 180.117188 278.070312 181.578125 278.144531 183.039062 C 278.214844 184.5 278.253906 185.960938 278.253906 187.425781 Z M 278.253906 187.425781 "/><g clip-rule="nonzero" clip-path="url(#e2b04da46b)"><path style=" stroke:none;fill-rule:nonzero;fill:#d1a12a;fill-opacity:1;" d="M 187.425781 75.851562 C 184.785156 75.851562 182.710938 73.777344 182.710938 71.136719 L 182.710938 20.015625 C 182.710938 17.375 184.785156 15.300781 187.425781 15.300781 C 190.066406 15.300781 192.144531 17.375 192.144531 20.015625 L 192.144531 71.136719 C 192.144531 73.679688 189.972656 75.851562 187.425781 75.851562 Z M 192.144531 354.835938 L 192.144531 303.714844 C 192.144531 301.074219 190.066406 299 187.425781 299 C 184.785156 299 182.710938 301.074219 182.710938 303.714844 L 182.710938 354.835938 C 182.710938 357.476562 184.785156 359.550781 187.425781 359.550781 C 190.066406 359.550781 192.144531 357.476562 192.144531 354.835938 Z M 73.871094 187.425781 C 73.871094 184.785156 71.796875 182.710938 69.15625 182.710938 L 17.28125 182.710938 C 14.640625 182.710938 12.566406 184.785156 12.566406 187.425781 C 12.566406 190.066406 14.640625 192.140625 17.28125 192.140625 L 69.15625 192.140625 C 71.796875 192.140625 73.871094 190.066406 73.871094 187.425781 Z M 362.289062 187.425781 C 362.289062 184.785156 360.210938 182.710938 357.570312 182.710938 L 305.699219 182.710938 C 303.058594 182.710938 300.984375 184.785156 300.984375 187.425781 C 300.984375 190.066406 303.058594 192.140625 305.699219 192.140625 L 357.570312 192.140625 C 360.210938 192.140625 362.289062 190.066406 362.289062 187.425781 Z M 107.164062 108.484375 C 108.957031 106.597656 108.957031 103.671875 107.070312 101.789062 L 70.382812 65.664062 C 68.496094 63.871094 65.574219 63.871094 63.6875 65.757812 C 61.894531 67.644531 61.894531 70.570312 63.78125 72.457031 L 100.46875 108.578125 C 101.410156 109.519531 102.542969 109.898438 103.769531 109.898438 C 104.996094 109.898438 106.222656 109.425781 107.164062 108.484375 Z M 311.074219 309.1875 C 312.867188 307.300781 312.867188 304.375 310.980469 302.488281 L 274.292969 266.367188 C 272.40625 264.574219 269.480469 264.574219 267.59375 266.460938 C 265.804688 268.347656 265.804688 271.269531 267.691406 273.15625 L 304.378906 309.28125 C 305.320312 310.222656 306.453125 310.601562 307.679688 310.601562 C 308.90625 310.601562 310.132812 310.128906 311.074219 309.1875 Z M 70.382812 309.1875 L 107.070312 273.0625 C 108.957031 271.269531 108.957031 268.253906 107.164062 266.367188 C 105.375 264.480469 102.355469 264.480469 100.46875 266.273438 L 63.78125 302.488281 C 61.894531 304.28125 61.894531 307.300781 63.6875 309.1875 C 64.628906 310.128906 65.855469 310.601562 67.082031 310.601562 C 68.308594 310.601562 69.4375 310.128906 70.382812 309.1875 Z M 274.292969 108.578125 L 310.980469 72.457031 C 312.867188 70.664062 312.867188 67.644531 311.074219 65.757812 C 309.28125 63.871094 306.265625 63.871094 304.378906 65.664062 L 267.691406 101.789062 C 265.804688 103.578125 265.804688 106.597656 267.59375 108.484375 C 268.539062 109.425781 269.765625 109.898438 270.992188 109.898438 C 272.214844 109.898438 273.441406 109.425781 274.292969 108.578125 Z M 143.855469 84.054688 C 146.210938 83.019531 147.34375 80.285156 146.398438 77.925781 L 137.15625 55.949219 C 136.121094 53.59375 133.386719 52.460938 130.933594 53.402344 C 128.574219 54.441406 127.441406 57.175781 128.386719 59.535156 L 137.628906 81.507812 C 138.382812 83.300781 140.175781 84.433594 141.96875 84.433594 C 142.722656 84.433594 143.289062 84.339844 143.855469 84.054688 Z M 243.828125 321.542969 C 246.1875 320.503906 247.316406 317.769531 246.375 315.410156 L 237.132812 293.433594 C 236.09375 291.078125 233.359375 289.945312 230.90625 290.890625 C 228.546875 291.925781 227.417969 294.660156 228.359375 297.019531 L 237.601562 318.996094 C 238.359375 320.785156 240.148438 321.917969 241.941406 321.917969 C 242.601562 321.917969 243.261719 321.730469 243.828125 321.542969 Z M 57.367188 245.523438 L 79.71875 236.375 C 82.171875 235.433594 83.304688 232.601562 82.265625 230.246094 C 81.324219 227.792969 78.492188 226.660156 76.136719 227.699219 L 53.78125 236.847656 C 51.332031 237.789062 50.199219 240.617188 51.238281 242.976562 C 51.992188 244.769531 53.78125 245.902344 55.574219 245.902344 C 56.140625 245.902344 56.800781 245.804688 57.367188 245.523438 Z M 298.625 147.246094 L 320.976562 138.097656 C 323.429688 137.15625 324.5625 134.324219 323.523438 131.96875 C 322.582031 129.515625 319.75 128.382812 317.394531 129.421875 L 295.039062 138.570312 C 292.589844 139.511719 291.457031 142.34375 292.496094 144.699219 C 293.25 146.492188 295.039062 147.625 296.832031 147.625 C 297.492188 147.53125 298.058594 147.4375 298.625 147.246094 Z M 237.132812 81.605469 L 246.375 59.628906 C 247.410156 57.269531 246.28125 54.441406 243.828125 53.496094 C 241.375 52.460938 238.640625 53.59375 237.601562 56.042969 L 228.359375 78.019531 C 227.324219 80.378906 228.453125 83.207031 230.90625 84.148438 C 231.472656 84.433594 232.132812 84.527344 232.699219 84.527344 C 234.585938 84.433594 236.375 83.394531 237.132812 81.605469 Z M 137.15625 318.996094 L 146.398438 297.019531 C 147.4375 294.660156 146.304688 291.832031 143.855469 290.890625 C 141.402344 289.851562 138.667969 290.984375 137.628906 293.433594 L 128.386719 315.410156 C 127.347656 317.769531 128.480469 320.597656 130.933594 321.542969 C 131.5 321.824219 132.160156 321.917969 132.726562 321.917969 C 134.609375 321.917969 136.402344 320.785156 137.15625 318.996094 Z M 82.359375 144.605469 C 83.304688 142.152344 82.171875 139.417969 79.8125 138.476562 L 57.460938 129.328125 C 55.007812 128.382812 52.273438 129.515625 51.332031 131.875 C 50.386719 134.324219 51.519531 137.0625 53.878906 138.003906 L 76.230469 147.152344 C 76.796875 147.4375 77.457031 147.53125 78.023438 147.53125 C 79.8125 147.53125 81.605469 146.398438 82.359375 144.605469 Z M 323.617188 242.976562 C 324.5625 240.523438 323.429688 237.789062 321.070312 236.847656 L 298.625 227.699219 C 296.171875 226.753906 293.4375 227.886719 292.496094 230.246094 C 291.550781 232.695312 292.683594 235.433594 295.039062 236.375 L 317.394531 245.523438 C 317.960938 245.804688 318.621094 245.902344 319.1875 245.902344 C 321.070312 245.902344 322.863281 244.769531 323.617188 242.976562 Z M 323.617188 242.976562 "/></g></g></svg>